<svg version="1.1" id="Layer_1" xmlns="http://www.w3.org/2000/svg" xmlns:xlink="http://www.w3.org/1999/xlink" x="0px" y="0px"
	 width="100%" viewBox="0 0 1024 800" enable-background="new 0 0 1024 800" xml:space="preserve">
<path fill="#000000" opacity="1.000000" stroke="none" 
	d="
M472.139160,480.122803 
	C493.506317,465.584473 515.517700,452.439240 535.423767,436.641266 
	C564.630066,413.462463 593.846436,390.214783 621.824585,365.510254 
	C628.274780,359.814850 636.003906,356.212585 643.308228,351.911041 
	C645.145996,350.828827 647.387329,350.546204 648.727661,352.490814 
	C650.145752,354.548218 648.608582,356.296600 647.079590,357.652374 
	C645.969849,358.636353 644.743896,359.686615 643.380066,360.155975 
	C630.407898,364.619812 623.293396,376.777527 611.865417,383.117493 
	C612.813721,385.207733 614.433167,384.654327 615.473145,385.404846 
	C618.601135,387.662354 619.284302,389.981415 616.198303,392.681366 
	C611.184692,397.067688 606.091431,401.362885 601.067566,405.737671 
	C600.366394,406.348175 599.333862,406.789398 599.329712,408.102234 
	C601.957703,409.481842 604.462280,407.398560 607.014038,407.742645 
	C616.512756,409.023407 626.172791,409.867676 635.143311,413.384460 
	C645.980408,417.632935 652.516174,425.926453 655.171326,437.271576 
	C655.850586,440.173523 656.643433,443.048859 657.547180,446.572205 
	C658.169067,441.545959 655.149902,437.393005 656.751526,431.876862 
	C661.315308,436.268585 659.124939,442.736938 663.423828,446.552856 
	C663.874878,442.475464 663.685242,438.496460 666.777893,434.922943 
	C666.777893,441.491241 666.777893,448.059570 666.777893,455.540619 
	C670.129395,453.875214 670.499634,451.612701 671.453491,449.857513 
	C672.570129,447.802490 673.515930,445.666718 675.587830,444.333466 
	C679.643494,441.723724 682.609680,442.813568 683.537476,447.555969 
	C685.057495,455.324921 683.856750,463.158691 683.734192,470.964417 
	C683.647949,476.456085 683.467346,481.946198 683.350830,487.437469 
	C683.318054,488.981506 683.485596,490.556702 685.079834,491.292236 
	C686.884888,492.125000 687.759949,490.522797 688.825562,489.555542 
	C689.688354,488.772369 690.443542,487.862183 691.348633,487.135681 
	C696.023743,483.383301 699.742004,484.411804 701.597717,490.079224 
	C702.370361,492.439087 702.952393,494.902252 703.266907,497.363708 
	C704.282166,505.309113 708.823425,510.193054 716.437195,511.753693 
	C724.571533,513.420959 732.908691,514.100647 741.039856,515.780151 
	C747.871155,517.191162 754.052063,520.956177 761.429565,520.779602 
	C761.273743,521.595398 761.117981,522.411194 760.962158,523.226990 
	C743.906311,522.309937 726.940613,520.235840 709.561462,517.155029 
	C710.164368,522.498596 717.078735,522.344360 716.628662,527.397644 
	C714.189514,529.327087 712.196106,528.198242 710.338257,526.633606 
	C704.530212,521.742249 698.011475,517.596619 695.749268,509.473511 
	C694.985962,506.732544 693.180847,502.738586 689.387085,503.539032 
	C685.228699,504.416443 680.452026,504.771637 679.614563,511.301758 
	C677.468689,528.035645 667.418823,539.230957 652.861694,546.955627 
	C645.252930,550.993225 637.649902,555.165344 632.489441,564.213318 
	C630.008118,558.183777 630.904663,553.543030 630.814514,547.939697 
	C637.297913,551.132812 638.642944,545.280884 641.918701,542.730225 
	C648.806274,537.367310 654.774414,531.155945 659.648621,523.884827 
	C665.911743,514.541748 669.287903,504.186523 670.477173,493.096405 
	C670.932373,488.852173 669.493469,484.821106 667.822876,481.015717 
	C663.897278,472.073730 661.177856,462.544037 655.099365,454.617432 
	C654.481506,453.811646 654.571838,452.404755 654.476929,451.264862 
	C653.353149,437.765137 646.426941,427.948578 635.289062,420.722900 
	C632.920959,419.186584 630.251892,418.851288 627.660461,418.634003 
	C616.383911,417.688660 605.085815,417.001862 593.798706,416.178406 
	C590.392700,415.929901 587.840149,417.032501 585.526978,419.726440 
	C566.638367,441.724426 546.590637,462.668182 526.935486,483.970825 
	C521.923218,489.403198 515.918945,494.308655 514.216003,502.139099 
	C513.993103,503.163879 513.416809,504.041901 512.211548,503.987793 
	C510.679169,503.918976 509.795776,502.905426 509.401855,501.539246 
	C508.556946,498.609131 509.987305,496.407593 511.830536,494.344421 
	C520.149780,485.032593 528.455872,475.709015 536.712402,466.450653 
	C536.442993,464.634644 534.694641,466.694916 534.371094,464.227386 
	C537.333618,462.026520 538.493530,456.431671 544.632996,456.956177 
	C545.614807,457.040039 546.110596,456.325439 546.677979,455.752167 
	C566.718201,435.503174 585.502991,414.118988 604.301819,392.747498 
	C604.017761,392.394318 603.733765,392.041168 603.449707,391.688019 
	C600.321106,394.063721 597.164062,396.403046 594.068481,398.821075 
	C575.548279,413.287720 559.058350,430.170349 540.365601,444.392334 
	C528.584045,453.356110 515.394897,460.521027 503.929138,469.836853 
	C486.799103,483.754913 467.597137,493.899048 448.053009,503.618286 
	C445.207886,505.033112 443.612274,506.188507 444.410187,509.890472 
	C445.413788,514.546875 442.402039,518.080505 436.764191,519.056580 
	C430.056000,520.218018 423.281433,521.199402 416.452362,519.396240 
	C414.735718,518.942932 412.818024,519.170593 410.995728,519.213135 
	C405.582977,519.339417 403.084381,517.074097 402.688965,511.582062 
	C402.510132,509.097809 402.412201,506.604614 402.131653,504.132050 
	C401.987701,502.863037 401.523041,501.630402 401.072479,499.870148 
	C398.108826,502.030823 396.674652,504.803680 395.051178,507.408966 
	C393.905975,509.246735 392.873993,511.158997 391.658691,512.947815 
	C390.707581,514.347656 389.451447,515.751587 387.580627,515.260315 
	C385.536041,514.723389 385.595001,512.756592 385.702545,511.115021 
	C385.885162,508.326843 386.276001,505.552338 386.628876,502.318207 
	C382.959290,503.444275 381.637390,507.395691 377.356659,508.637268 
	C378.688538,500.212494 386.820862,499.719238 390.890320,494.408356 
	C392.905457,499.707306 388.192200,503.631653 389.523315,508.449493 
	C391.154633,506.601196 391.345367,504.584076 391.902710,502.721588 
	C392.838928,499.592926 394.551575,496.964386 397.125519,494.973694 
	C404.587219,489.202698 409.323822,490.727692 411.680542,499.607727 
	C412.531036,500.532898 413.535278,500.067688 414.481720,499.877960 
	C418.394714,499.093506 420.919647,500.402496 421.944122,504.450867 
	C422.300262,505.858368 422.964874,507.312683 423.874786,508.431610 
	C426.536682,511.704865 430.213165,511.509949 431.787018,507.637848 
	C433.438324,503.575134 435.230560,500.614899 440.212799,500.724762 
	C442.283142,500.770416 442.975006,499.072510 442.171570,497.117645 
	C441.539459,495.579620 440.371429,494.157410 440.134827,492.579773 
	C439.209351,486.409576 436.960724,482.811676 429.668121,484.744110 
	C427.010468,485.448364 424.401245,482.947540 422.336212,480.980042 
	C418.146667,476.988464 413.466858,476.476746 407.998413,477.908600 
	C404.212494,478.899933 400.399048,481.279938 396.248199,479.534058 
	C395.909088,477.656097 397.034637,477.050720 398.094177,476.687073 
	C406.898468,473.665344 415.666229,471.236481 424.425873,477.041626 
	C427.701538,479.212494 431.137146,479.952759 435.229309,478.191956 
	C439.676575,476.278290 441.196167,477.235413 448.126038,483.188660 
	C449.594025,483.234070 450.055847,482.041901 450.547974,481.036041 
	C456.899536,468.053558 467.072113,458.280334 477.149170,448.245544 
	C495.756378,429.716431 518.842651,420.073517 543.411804,412.970642 
	C546.588806,412.052155 549.408447,412.465302 550.410217,415.693787 
	C551.413574,418.927094 548.443909,419.883728 546.042114,420.593231 
	C535.195923,423.797180 524.122620,426.263855 513.889343,431.351471 
	C493.476624,441.499939 478.243408,457.331299 465.212128,475.558105 
	C463.341400,478.174744 461.471649,481.027374 461.441742,484.995941 
	C465.686462,484.680878 468.651917,482.235229 472.139160,480.122803 
M671.766907,468.613525 
	C673.295898,466.739197 672.779968,464.886658 671.931763,462.715424 
	C667.801147,464.514404 669.600464,466.439423 671.766907,468.613525 
z"/>
<path fill="#000000" opacity="1.000000" stroke="none" 
	d="
M433.759644,401.771667 
	C443.186890,392.577545 450.834442,382.136932 461.027069,374.175049 
	C473.147949,364.707001 486.181732,358.546021 502.135040,361.636719 
	C506.533905,362.488953 510.343201,360.677612 513.712402,358.016937 
	C520.070129,352.996277 526.657593,348.637604 535.189148,348.400177 
	C537.016052,348.349335 538.833374,347.335022 539.403198,345.350159 
	C539.952820,343.435699 538.189697,342.841034 536.980164,342.044739 
	C534.336609,340.304413 533.650024,337.566864 533.268860,334.722260 
	C532.831360,331.457397 531.105286,329.906281 527.806458,329.291473 
	C520.271057,327.887207 516.844543,323.737488 516.907837,316.138580 
	C517.005981,304.350403 518.384644,292.863037 525.681213,282.923187 
	C527.042419,281.068848 528.124573,278.989319 527.137390,276.408264 
	C523.916687,267.987366 526.499146,260.426208 530.930237,253.264664 
	C532.582886,250.593674 534.759949,248.237320 535.427734,245.243729 
	C535.132019,243.588043 533.828918,243.445084 532.820679,242.942764 
	C524.106689,238.601334 521.378479,232.724335 525.148804,223.718384 
	C529.388733,213.590820 534.479370,203.818237 539.239563,193.910278 
	C540.832031,190.595764 541.982483,187.155197 543.038635,183.629318 
	C544.636841,178.293854 541.315125,174.180161 539.730225,169.452774 
	C545.038513,170.390930 547.892029,173.442963 548.349792,178.406631 
	C548.850464,183.835007 547.919861,189.082108 545.660583,193.995911 
	C540.930603,204.283508 536.011353,214.484009 531.197937,224.733475 
	C530.491821,226.237106 529.828918,227.778656 529.337036,229.362000 
	C527.647156,234.801804 529.395630,237.907181 534.924683,239.470383 
	C540.776123,241.124741 541.407532,242.395264 539.624268,248.321030 
	C537.466675,255.490631 533.346680,261.930023 532.006714,269.426056 
	C531.500305,272.258636 532.154602,274.081818 534.307434,275.946655 
	C540.099670,280.963867 540.398010,285.471313 535.097839,291.356598 
	C528.721436,298.436859 525.888733,306.642822 526.212952,316.049713 
	C526.252747,317.205444 526.212646,318.485992 526.687134,319.480957 
	C527.913513,322.052643 530.297546,323.041595 532.933228,322.534882 
	C535.544189,322.032898 534.796997,319.556030 534.536011,317.970093 
	C534.019836,314.833588 534.671692,311.207703 531.210999,309.040039 
	C529.529846,307.986908 530.400574,306.351135 531.013123,304.996155 
	C533.277527,299.987701 535.583435,294.997955 537.887146,290.007355 
	C538.916870,287.776550 540.438660,286.162598 543.019470,285.731873 
	C548.215759,284.864624 550.212769,287.282806 548.486145,292.308289 
	C547.309875,295.732025 544.794189,298.646851 544.524414,302.610474 
	C546.411255,303.212463 547.246643,301.636169 548.344299,300.896606 
	C557.509216,294.721802 567.301880,292.990662 577.783875,296.855560 
	C581.076660,298.069641 584.250610,298.325104 587.541382,297.249786 
	C591.270264,296.031311 594.250977,296.743652 596.859070,299.926147 
	C598.480347,301.904449 600.781616,303.325470 603.013916,305.194458 
	C599.646179,308.495605 597.139282,306.050934 595.412659,304.038757 
	C592.914673,301.127533 590.866272,300.865753 587.824646,303.097534 
	C584.097046,305.832672 580.007812,304.979065 575.856018,303.754364 
	C569.339233,301.832031 565.131592,303.565613 561.816772,309.096313 
	C558.709900,314.280090 559.033752,315.933624 563.949280,319.251465 
	C565.984497,320.625153 567.277344,322.525909 568.033447,324.774872 
	C568.903442,327.362885 569.526489,330.178314 567.208496,332.248383 
	C564.820435,334.380981 562.209229,333.253845 559.834351,331.828583 
	C557.979065,330.715088 555.990540,329.723572 554.389282,328.307037 
	C550.983887,325.294434 548.021851,325.640045 544.768066,328.593536 
	C543.162048,330.051300 541.964233,331.349396 542.374268,333.642303 
	C542.775574,335.886261 544.622986,335.779785 546.208008,336.107452 
	C550.485168,336.991699 551.427490,339.657745 549.308716,343.069183 
	C545.447632,349.285736 541.857788,355.904755 532.463135,354.445648 
	C528.411011,353.816315 525.293396,356.992523 522.448975,359.454803 
	C515.162842,365.762085 507.097534,367.952545 497.472748,366.537384 
	C485.036133,364.708862 474.843262,370.749695 465.262543,377.664307 
	C455.833588,384.469360 448.984528,393.846954 441.570129,402.603241 
	C436.639648,408.426117 430.882385,413.071381 424.345276,416.859589 
	C418.641876,420.164673 417.388824,423.621887 420.693420,429.095490 
	C422.898804,432.748413 422.471283,435.520966 419.762756,438.510101 
	C414.396973,444.431854 409.417877,450.756866 401.258118,453.191956 
	C398.095795,454.135681 396.000031,456.568390 394.057373,459.137512 
	C386.015594,469.772552 378.222778,480.579193 370.932312,491.749542 
	C368.583191,495.348846 366.460388,499.160065 362.658600,501.628204 
	C360.711823,502.892090 360.216034,505.086334 360.126007,507.351105 
	C359.998108,510.568420 360.651764,513.657104 361.637268,516.675354 
	C363.599823,522.686157 366.242340,528.661560 361.166656,534.667358 
	C364.971497,536.553162 368.092163,535.237427 370.960876,534.498352 
	C375.865021,533.234924 380.084686,533.562866 383.997894,537.059204 
	C385.314240,538.235352 387.198456,538.783447 388.837891,539.588501 
	C390.938629,540.620178 393.313263,541.438171 392.693634,544.553589 
	C392.040009,547.839783 390.804810,550.636963 386.958069,551.190613 
	C383.198578,551.731750 380.090912,550.169434 377.230988,548.056458 
	C374.200134,545.817322 371.235565,544.926270 367.505615,546.621643 
	C363.943329,548.240784 361.552094,546.912476 358.602600,543.833130 
	C354.123993,539.157410 353.394318,534.755371 354.367401,528.662170 
	C355.008820,524.645813 352.987274,520.225769 352.274658,515.966919 
	C350.965576,508.143311 352.197998,501.231873 358.487579,495.506500 
	C361.895630,492.404144 364.705811,488.536285 367.328827,484.701263 
	C374.371979,474.403595 383.503937,465.672943 389.493103,454.563416 
	C391.851318,450.189026 396.307068,447.822723 400.847076,445.933075 
	C403.480835,444.836823 405.871826,443.467316 407.905548,441.355072 
	C411.025543,438.114563 412.435303,434.946503 410.745331,430.205597 
	C408.389099,423.595764 410.581604,418.261993 416.426514,414.190979 
	C422.164459,410.194458 428.281525,406.734192 433.759644,401.771667 
z"/>
<path fill="#000000" opacity="1.000000" stroke="none" 
	d="
M327.236145,342.257385 
	C366.908264,295.979828 416.653137,268.291473 476.461151,259.095520 
	C489.215332,257.134491 502.262573,256.022003 515.279907,257.459869 
	C516.571350,257.602478 517.947754,257.862793 519.065613,258.471039 
	C520.529175,259.267395 520.917419,260.722778 520.351807,262.367035 
	C519.782959,264.020660 518.588745,263.920197 517.134521,263.817139 
	C461.476074,259.872681 412.023834,276.322144 368.178711,310.074341 
	C322.118652,345.531616 292.370361,391.680695 279.894318,448.605713 
	C274.957520,471.131104 272.683228,494.001648 274.475800,517.052307 
	C276.813446,547.112000 284.890076,575.601135 299.321747,602.185913 
	C303.832275,610.494812 306.749847,619.698608 313.375580,626.823120 
	C314.956116,628.522583 314.903595,630.533569 312.900269,632.033691 
	C310.474823,633.849792 309.361847,631.991760 308.242493,630.219177 
	C287.872101,597.961609 274.004639,563.450073 270.570435,525.050232 
	C264.433533,456.429596 283.526794,395.742249 327.236145,342.257385 
z"/>
<path fill="#000000" opacity="1.000000" stroke="none" 
	d="
M702.050659,637.071045 
	C721.105103,610.776611 733.961853,582.178223 739.785461,550.499756 
	C740.714294,545.447205 742.593384,540.590271 742.819153,535.374084 
	C742.900696,533.488220 743.775574,531.852600 746.056091,531.180115 
	C748.396240,532.363220 748.216431,534.367188 747.825012,536.611389 
	C741.839722,570.932373 730.664856,603.266602 711.071289,632.347107 
	C673.450012,688.184326 622.087769,723.698303 555.729431,736.658875 
	C529.055542,741.868530 502.218109,742.312134 475.393494,737.373840 
	C474.575562,737.223267 473.718231,737.184631 472.946198,736.907410 
	C471.167603,736.268860 469.334686,735.488892 470.088287,733.051697 
	C470.732117,730.969421 472.329315,731.023254 474.145325,731.469971 
	C487.699768,734.804443 501.557800,734.551270 515.354248,734.701233 
	C559.572144,735.181946 600.029236,722.632202 637.261963,699.116333 
	C662.953979,682.889465 684.399536,662.217651 702.050659,637.071045 
z"/>
<path fill="#000000" opacity="1.000000" stroke="none" 
	d="
M723.440308,413.615417 
	C728.279236,422.197021 732.972839,430.438904 737.617615,438.708191 
	C738.732361,440.692749 740.490967,442.855499 737.949768,444.917877 
	C735.586304,446.836029 734.030212,444.547760 732.316528,443.409119 
	C731.222351,442.682098 730.148804,441.923859 728.873352,441.047150 
	C726.216858,445.732788 723.655090,444.146698 721.403137,440.957916 
	C719.973694,438.933746 718.363892,436.793518 717.766113,434.466156 
	C714.640808,422.297119 705.711060,413.547638 699.572510,403.175537 
	C696.107300,397.320343 692.368225,396.873047 686.505981,400.194977 
	C679.089539,404.397675 674.398010,403.152924 669.822388,395.812500 
	C668.592102,393.838715 667.476257,391.737732 665.945618,390.017456 
	C661.378967,384.884949 657.972839,384.247650 653.163147,388.129181 
	C648.847290,391.612183 645.824707,390.248932 644.829346,384.733948 
	C644.211487,381.311249 643.205200,378.330200 640.216248,376.263763 
	C638.471252,375.057343 637.905762,373.121735 637.305237,371.180359 
	C636.337158,368.050598 637.430908,366.568604 640.614807,367.025543 
	C645.421265,367.715302 650.238403,368.546753 653.157959,373.169098 
	C653.895874,374.337341 654.904053,375.203400 656.273315,375.501221 
	C665.164246,377.435425 672.819519,381.195557 677.502808,389.527008 
	C678.508301,391.315765 680.244873,391.856384 682.240662,391.473877 
	C682.892761,391.348907 683.531128,391.150055 684.173645,390.976837 
	C693.112671,388.566284 701.372681,388.645996 707.243103,397.673401 
	C705.299011,388.093140 698.107239,381.065704 696.754700,371.525940 
	C706.792236,384.721649 715.064697,398.984467 723.440308,413.615417 
M724.109131,423.981537 
	C722.190308,420.948090 721.132019,417.269379 717.632996,414.849945 
	C715.935669,422.401154 721.936829,424.273315 725.966858,427.495789 
	C725.451294,426.511810 724.935669,425.527832 724.109131,423.981537 
z"/>
<path fill="#000000" opacity="1.000000" stroke="none" 
	d="
M641.206543,312.598145 
	C645.211548,310.361694 648.242554,312.882385 651.353333,314.098175 
	C654.427063,315.299561 657.172974,315.668549 660.466736,314.678955 
	C668.186035,312.359741 674.954468,315.116852 680.790710,320.018433 
	C685.496826,323.970947 689.774536,328.437042 694.199524,332.719513 
	C697.080200,335.507507 698.023254,339.256744 699.121582,342.934631 
	C700.987671,349.183350 702.981384,350.787018 709.432312,350.722809 
	C712.366394,350.693634 714.523438,351.740784 716.458984,353.799561 
	C718.880493,356.375092 720.904175,359.217590 722.385376,362.401398 
	C727.872620,374.196228 734.654785,385.278687 741.032104,396.585083 
	C742.124451,398.521698 743.275696,400.254425 745.602478,400.880920 
	C747.480164,401.386536 748.561584,402.900970 749.705383,404.362122 
	C755.349365,411.572235 760.801636,418.953033 766.797913,425.860046 
	C771.223267,430.957672 777.925842,433.365814 782.667725,438.372253 
	C785.578369,441.445251 788.275818,445.288971 793.305298,445.925079 
	C795.167603,446.160583 799.612122,456.757935 799.119873,458.615875 
	C798.421509,461.251801 795.986511,461.241791 794.870972,459.945923 
	C789.227783,453.390625 779.769836,451.317474 775.496155,443.179016 
	C774.600891,441.474152 773.156189,439.721008 771.511292,438.798828 
	C755.469238,429.805420 746.254028,414.960205 737.804077,399.540100 
	C732.211853,389.334961 726.061340,379.407166 721.762085,368.515961 
	C720.223267,364.617767 717.719177,361.270050 714.794617,358.239166 
	C712.519165,355.881134 710.051819,354.290985 706.565552,354.187958 
	C700.853882,354.019043 697.259216,350.758209 695.876526,345.356842 
	C694.585815,340.315002 692.041870,336.149048 688.158997,332.813019 
	C684.754395,329.887909 681.634094,326.695862 678.434326,323.561920 
	C670.440308,315.732300 659.662109,316.768860 651.106018,325.587311 
	C647.453430,329.351837 644.833191,334.356293 638.467529,334.902344 
	C637.800659,333.730865 637.092834,332.487579 636.417175,331.300720 
	C629.724365,332.999268 624.955933,338.873901 617.555603,338.580811 
	C620.660034,333.809021 624.743835,329.730103 629.860779,327.937317 
	C636.634521,325.564117 639.738220,321.436554 639.997803,314.587219 
	C640.020081,313.999084 640.607971,313.432373 641.206543,312.598145 
z"/>
<path fill="#000000" opacity="1.000000" stroke="none" 
	d="
M301.375031,696.463379 
	C295.253479,680.535950 301.102997,666.793640 308.770172,653.970276 
	C322.789856,630.522339 340.492889,610.456177 365.040344,597.240540 
	C370.142120,594.493958 374.733429,590.797546 379.551910,587.526978 
	C381.517517,586.192810 383.503510,585.030212 386.265259,586.230469 
	C386.711304,589.353638 384.191589,590.427734 382.296326,591.784668 
	C368.488983,601.670593 354.854126,611.795349 342.277649,623.221191 
	C327.404724,636.733459 318.833099,654.267334 313.187134,673.034363 
	C310.905426,680.618713 311.537323,689.198059 311.577179,697.321045 
	C311.604370,702.857178 315.151733,706.809937 319.936707,709.537659 
	C322.094025,710.767578 324.511536,711.715698 325.946594,713.885864 
	C327.793243,716.678467 328.024231,719.645630 325.524445,722.094971 
	C323.004852,724.563965 320.745667,722.929749 318.524475,721.151672 
	C310.468628,714.702881 303.187469,707.746338 301.375031,696.463379 
z"/>
<path fill="#000000" opacity="1.000000" stroke="none" 
	d="
M753.099976,104.959755 
	C756.812256,101.506668 756.935730,96.955940 758.111206,92.849815 
	C759.759521,87.091766 761.222107,81.279869 762.917969,75.536415 
	C763.760925,72.681343 763.234741,71.010612 760.128479,70.851334 
	C757.876709,72.193642 758.994507,75.593765 756.365723,76.484360 
	C755.092407,76.169373 754.856140,75.174416 754.745605,74.170792 
	C754.516113,72.087257 753.254395,71.379044 751.324768,71.361786 
	C749.555969,71.345970 747.876648,71.587982 747.205872,73.474319 
	C743.968323,82.579002 741.563599,91.922707 739.332031,101.314751 
	C738.822632,103.458702 741.488586,104.110916 741.542664,106.302719 
	C737.689453,107.752563 733.862976,106.950386 729.702209,106.865219 
	C736.223877,96.840538 736.987854,85.560463 740.297852,75.119499 
	C741.413574,71.599976 739.288696,71.054039 736.517090,71.414200 
	C732.885681,71.886101 731.078430,74.910637 728.612061,78.002647 
	C726.662659,73.719254 728.555969,70.571304 729.787109,67.655922 
	C730.967346,64.860954 733.682129,66.763924 735.577454,67.057823 
	C741.070190,67.909561 746.554504,68.174896 751.973022,67.035469 
	C759.577698,65.436340 766.595215,69.185707 774.577576,68.847115 
	C768.178650,72.418839 767.660278,78.209175 766.734619,84.656960 
	C772.228210,84.463242 777.597473,86.638275 782.339233,83.336342 
	C785.146362,81.381584 785.775391,72.642723 784.081116,68.968811 
	C787.975403,67.522240 791.280273,67.538132 795.764404,69.191353 
	C789.997803,73.253113 790.104553,79.789162 788.384827,85.515274 
	C787.093811,89.814064 786.172852,94.225792 785.142700,98.600311 
	C784.705383,100.457268 783.303894,102.679482 785.616699,104.027649 
	C787.913330,105.366425 789.834290,103.560127 791.314087,102.105453 
	C796.097656,97.403206 799.376892,91.528519 803.265503,86.131020 
	C806.867310,81.131691 810.283447,75.998917 813.819824,70.951950 
	C814.845032,69.488914 815.804871,67.857658 818.587524,67.582527 
	C821.058716,80.138687 816.791565,93.214119 821.805664,105.695328 
	C818.523315,107.726501 815.146912,107.091492 811.239685,106.136765 
	C813.816223,101.839134 815.542297,97.401909 812.127258,93.604774 
	C809.799377,91.016373 804.050476,92.151527 801.811279,95.318253 
	C799.641724,98.386490 795.169617,101.597092 802.097839,106.433960 
	C792.091003,106.433960 783.599426,106.433960 774.284180,106.433960 
	C779.960876,101.483665 779.830383,95.027962 781.665283,88.226311 
	C775.570251,89.067253 769.459656,85.473167 765.123291,90.546661 
	C761.403320,94.898911 761.713257,102.618156 764.486877,105.844704 
	C760.014038,107.925316 754.998474,107.662430 753.099976,104.959755 
M806.272400,87.374138 
	C805.550110,91.008453 808.382019,89.349686 809.732544,89.548897 
	C811.400574,89.794937 813.310730,89.582008 813.494507,87.354698 
	C813.740112,84.378014 814.074219,81.338509 812.975098,77.558586 
	C810.511047,81.121498 808.547913,83.960030 806.272400,87.374138 
z"/>
<path fill="#000000" opacity="1.000000" stroke="none" 
	d="
M652.769775,475.604553 
	C648.311768,483.443848 641.964050,489.149597 635.790344,494.978363 
	C631.527405,499.003021 627.655396,503.328766 624.356567,508.165436 
	C623.614624,509.253387 622.447388,510.442657 622.448303,511.584534 
	C622.456177,521.395813 614.166321,523.133728 607.851013,526.631348 
	C604.862366,528.286499 601.775269,527.244995 599.966003,524.392395 
	C597.677124,520.783630 595.353333,521.578979 592.532410,523.513611 
	C577.941101,533.520508 569.568848,547.290588 567.322754,564.820740 
	C566.921387,567.953369 566.584534,571.103577 565.968872,574.196045 
	C565.583435,576.132568 564.950806,578.123901 563.122986,579.308655 
	C561.614502,580.286377 560.064148,581.763733 558.148010,580.824585 
	C556.330688,579.933960 556.643066,577.874207 556.863708,576.329224 
	C560.227905,552.769287 569.638733,532.682861 590.214111,519.172058 
	C594.355591,516.452576 598.812134,515.705750 603.489807,518.015625 
	C606.106934,519.307922 608.401184,518.475342 609.149109,515.846008 
	C613.416687,500.844513 625.519043,492.820892 637.003784,484.286072 
	C643.167542,479.705566 649.906982,475.789825 651.204407,467.167816 
	C651.425598,465.698242 652.681763,464.585999 655.007507,464.199005 
	C657.806213,468.478363 654.283508,471.742706 652.769775,475.604553 
z"/>
<path fill="#000000" opacity="1.000000" stroke="none" 
	d="
M604.879761,149.999710 
	C604.887512,144.177368 604.999573,138.852203 604.866821,133.533157 
	C604.773804,129.808151 606.423340,128.409271 610.017517,128.790558 
	C613.486145,129.158539 616.978088,129.308029 620.446472,129.678024 
	C630.245361,130.723297 634.692139,140.582321 628.591064,148.365173 
	C626.462708,151.080261 626.636169,152.767365 628.501221,155.227905 
	C632.061890,159.925476 635.403259,164.789246 638.915100,169.694946 
	C633.482544,172.093582 630.504395,171.202866 627.560547,166.357498 
	C625.293335,162.625763 622.809448,159.132065 619.468933,156.309250 
	C617.937988,155.015579 616.244629,153.977768 613.757874,153.957855 
	C612.209961,157.688049 613.193665,161.673660 612.958923,165.528412 
	C612.790710,168.291107 612.848694,171.017975 608.886536,170.966675 
	C604.993347,170.916245 604.873169,168.294464 604.881592,165.469315 
	C604.896423,160.479416 604.881714,155.489456 604.879761,149.999710 
M622.669922,144.149094 
	C624.366150,141.032349 623.922668,138.304138 620.891479,136.372665 
	C618.522583,134.863174 615.163818,134.133331 613.438538,136.039734 
	C611.010010,138.723328 611.829346,142.854050 612.834412,146.021652 
	C613.788147,149.027115 616.787964,147.177094 618.941711,146.834000 
	C620.307495,146.616440 621.382263,145.825897 622.669922,144.149094 
z"/>
<path fill="#000000" opacity="1.000000" stroke="none" 
	d="
M503.575500,129.402069 
	C507.284363,129.978287 506.252350,132.639236 506.291138,134.584061 
	C506.550323,147.584152 506.515778,147.613770 519.587769,147.579330 
	C529.384033,147.553528 528.753784,148.752029 528.765137,138.497375 
	C528.767151,136.666382 528.821228,134.835281 528.810425,133.004471 
	C528.794922,130.393204 530.235413,129.604126 532.638000,129.607468 
	C535.076355,129.610855 536.333801,130.459442 536.320557,133.077469 
	C536.262512,144.563950 536.275208,156.050858 536.283630,167.537598 
	C536.285339,169.815765 535.190002,170.907349 532.937439,170.899429 
	C530.651672,170.891403 529.635071,169.698425 529.641113,167.466415 
	C529.649170,164.470062 529.516846,161.470230 529.622070,158.478134 
	C529.725403,155.543457 528.561646,154.196503 525.532654,154.267471 
	C520.873962,154.376617 516.206543,154.403702 511.550690,154.241119 
	C508.346649,154.129211 506.961792,155.390045 507.085175,158.605347 
	C507.193604,161.430054 507.059875,164.264114 507.031464,167.094009 
	C507.005676,169.666489 505.921417,171.119583 503.136383,171.151398 
	C500.459961,171.181931 499.009888,170.028687 499.003357,167.348541 
	C498.975464,155.862259 499.015076,144.375778 498.974884,132.889557 
	C498.964417,129.896774 500.731567,129.266739 503.575500,129.402069 
z"/>
<path fill="#000000" opacity="1.000000" stroke="none" 
	d="
M375.068726,108.493805 
	C363.585815,110.248825 358.015015,104.343430 360.642975,93.612442 
	C361.828918,88.769676 363.327026,84.003349 364.512268,79.160431 
	C365.264740,76.086006 367.634338,72.582787 361.793304,70.475357 
	C367.462433,68.672577 371.995331,68.742706 376.783325,70.109276 
	C371.951294,72.258873 371.215759,76.532028 370.189453,80.759796 
	C368.895508,86.090149 367.289032,91.344131 365.851501,96.640320 
	C364.976501,99.863876 364.611206,102.937065 368.392212,104.750633 
	C372.158722,106.557259 377.016144,105.700386 379.057648,102.132561 
	C383.826935,93.797379 385.452423,84.366585 387.743622,75.185844 
	C388.370453,72.674217 385.590576,72.115173 384.010468,69.235947 
	C393.247559,68.578201 401.584137,68.814163 410.280273,69.709419 
	C402.795349,73.986839 403.864227,81.844124 401.577728,88.111000 
	C400.329224,91.532898 399.867249,95.237923 398.674011,98.684914 
	C397.571472,101.870026 396.788971,104.712288 401.726044,106.924789 
	C396.574860,108.785378 392.670746,108.021790 388.855804,107.738541 
	C394.162598,97.378342 395.894043,86.443665 398.693451,75.855621 
	C399.249603,73.752075 398.256012,72.419991 395.978546,71.962593 
	C393.122192,71.388947 391.988037,73.016495 391.352234,75.297234 
	C389.342773,82.505615 387.276215,89.701286 385.454895,96.957886 
	C384.050110,102.554871 381.092224,106.589333 375.068726,108.493805 
z"/>
<path fill="#000000" opacity="1.000000" stroke="none" 
	d="
M420.004028,171.405487 
	C410.652863,168.553772 407.427887,164.803314 407.006104,155.648819 
	C406.676941,148.503586 406.887634,141.333008 406.879883,134.173676 
	C406.876740,131.281006 407.800385,129.481140 411.255859,129.612137 
	C414.606384,129.739166 414.985077,131.770645 414.987488,134.282684 
	C414.994019,141.110947 414.864441,147.941055 414.984131,154.767014 
	C415.105621,161.696136 417.902527,164.609268 424.873688,165.496719 
	C430.697937,166.238159 435.865967,162.844086 437.052643,156.866592 
	C438.520630,149.471909 437.352692,141.923676 437.702423,134.452576 
	C437.776031,132.880203 437.144043,130.760437 439.180298,130.099121 
	C441.803253,129.247253 444.320312,129.358521 444.316193,133.175034 
	C444.306549,142.167862 444.372498,151.163025 444.182007,160.152466 
	C444.091827,164.407761 441.334900,167.194168 437.789886,169.056412 
	C432.325134,171.927109 426.547913,173.130432 420.004028,171.405487 
z"/>
<path fill="#000000" opacity="1.000000" stroke="none" 
	d="
M514.475586,599.953491 
	C510.219238,596.077393 509.234680,591.793030 510.636963,586.587402 
	C512.452820,579.846497 516.007141,574.088257 519.971619,568.524536 
	C524.704956,561.881775 528.054993,554.564087 531.431396,547.232727 
	C529.067810,545.827087 527.382263,547.299377 525.602844,547.240784 
	C522.666626,547.143982 521.026550,545.760803 520.370056,542.907166 
	C519.639832,539.733093 521.987671,539.287170 524.014771,538.660217 
	C528.746887,537.196533 533.866882,534.695618 537.967285,539.340820 
	C542.204346,544.140930 538.153198,548.320435 535.857788,552.411926 
	C530.812744,561.404724 525.712646,570.366943 520.583801,579.312256 
	C518.895630,582.256531 518.037109,585.459534 517.514282,588.741699 
	C517.237915,590.476624 516.623413,592.594055 518.335693,593.884705 
	C520.254395,595.330994 522.201477,593.991211 523.911682,593.102966 
	C525.517517,592.268738 526.895264,591.003174 528.402649,589.970276 
	C531.148376,588.088745 534.704102,587.610535 536.627502,589.898010 
	C538.869141,592.564026 536.756714,595.658569 534.179688,597.457153 
	C528.244446,601.599548 521.737793,602.631836 514.475586,599.953491 
z"/>
<path fill="#000000" opacity="1.000000" stroke="none" 
	d="
M569.954041,141.039215 
	C569.965820,127.493523 569.261292,129.037628 581.519531,128.943466 
	C584.851318,128.917862 588.185181,128.964722 591.515808,129.058121 
	C593.897949,129.124893 595.160645,130.315460 595.139465,132.830887 
	C595.117065,135.494568 593.584595,136.254440 591.265625,136.247116 
	C588.099304,136.237091 584.916382,136.466614 581.770508,136.217026 
	C577.649048,135.890030 577.212097,138.152908 577.209290,141.444992 
	C577.206482,144.731934 577.632935,147.026688 581.751648,146.693970 
	C584.565369,146.466690 587.414185,146.690781 590.247253,146.682571 
	C592.481445,146.676086 594.174377,147.145859 594.180664,149.944962 
	C594.186707,152.614975 592.777710,153.405273 590.403137,153.370682 
	C587.404114,153.326981 584.392822,153.540512 581.406738,153.342331 
	C577.425110,153.078064 577.233093,155.472504 577.252136,158.439224 
	C577.271729,161.486923 577.225281,164.202835 581.534729,163.994324 
	C585.024048,163.825485 588.531738,164.004196 592.030457,164.070557 
	C594.311401,164.113815 595.850891,164.989059 595.954590,167.576706 
	C596.067932,170.403931 594.193604,170.928757 592.054260,170.953690 
	C586.055908,171.023636 580.056396,170.978958 574.057312,170.988373 
	C570.672302,170.993698 569.950623,168.894028 569.963623,166.030792 
	C570.000854,157.864853 569.963684,149.698547 569.954041,141.039215 
z"/>
<path fill="#000000" opacity="1.000000" stroke="none" 
	d="
M552.979675,87.019234 
	C555.560181,83.155571 557.971497,79.081413 563.362488,78.535469 
	C565.373047,80.906448 563.609009,83.764832 564.577454,86.185722 
	C574.562195,75.983055 576.396851,77.543968 578.737671,86.357498 
	C581.366150,83.595367 583.249451,80.250664 587.482117,79.354416 
	C591.180054,78.571396 592.330139,80.058395 592.813538,83.190338 
	C593.296021,86.315750 591.882507,89.059998 591.124268,91.921967 
	C590.279297,95.111130 588.986450,98.188637 588.818481,101.722435 
	C590.854919,101.518044 591.066467,98.680481 593.612854,98.892303 
	C593.396790,103.529648 590.674316,106.116455 586.830444,107.517509 
	C583.775330,108.631065 581.925720,106.570175 582.793274,102.859764 
	C583.889709,98.171074 585.446228,93.590736 586.772949,88.954720 
	C587.218140,87.399025 588.079590,85.867111 587.263428,83.914635 
	C584.617065,83.613655 583.440857,85.435616 582.453735,87.302330 
	C579.809509,92.302727 577.268250,97.357590 574.689148,102.392426 
	C574.159302,103.426788 573.743286,104.536469 573.094543,105.488556 
	C572.308472,106.642128 571.163513,107.469696 569.693542,106.915245 
	C567.942932,106.254967 568.478394,104.706635 568.773071,103.482773 
	C569.823669,99.120148 570.992371,94.785957 572.117004,90.441185 
	C572.613464,88.523483 573.256653,86.614540 572.491394,84.539314 
	C570.110352,83.832138 569.301575,85.814880 568.196838,87.081306 
	C564.634644,91.164841 562.604309,96.105614 560.616394,101.055855 
	C560.120605,102.290359 559.746582,103.575790 559.214294,104.793091 
	C558.565125,106.277954 557.466858,107.459488 555.746399,106.913971 
	C553.701721,106.265610 554.425720,104.508209 554.751221,103.105545 
	C555.465698,100.027405 556.281067,96.972588 557.061401,93.909821 
	C557.836609,90.866837 558.619629,87.825813 559.430115,84.663628 
	C556.933289,84.934975 556.901367,90.045364 553.164734,87.223373 
	C552.999878,86.995888 552.979675,87.019234 552.979675,87.019234 
z"/>
<path fill="#000000" opacity="1.000000" stroke="none" 
	d="
M665.780273,169.061798 
	C660.300415,172.557846 654.912659,171.777206 649.636169,169.853088 
	C645.211060,168.239426 645.085754,164.726593 646.234436,160.930710 
	C648.247009,160.179840 649.147705,161.739044 650.361206,162.464371 
	C652.687195,163.854568 655.084412,165.059280 657.879883,164.570251 
	C660.182068,164.167511 662.712769,163.661942 663.419373,161.019943 
	C664.094788,158.494614 662.105957,157.055740 660.333496,155.805252 
	C656.937195,153.409134 653.322754,151.304428 650.048584,148.757721 
	C646.265320,145.815048 644.082275,142.040085 645.683533,136.983307 
	C647.339539,131.753693 651.165222,129.253647 656.375000,128.588791 
	C659.923218,128.135956 663.392761,128.666962 666.562683,130.289505 
	C668.938354,131.505478 669.744080,133.843948 668.910461,136.259064 
	C668.013306,138.858276 665.826904,137.372452 664.193115,137.096207 
	C660.257996,136.430832 655.055908,133.436935 653.182922,138.593857 
	C651.505920,143.211395 657.164062,144.592407 660.390625,146.655075 
	C661.790955,147.550293 663.290283,148.308182 664.614746,149.301651 
	C672.016113,154.853287 672.537964,161.999573 665.780273,169.061798 
z"/>
<path fill="#000000" opacity="1.000000" stroke="none" 
	d="
M636.501465,82.624771 
	C636.986816,80.784477 637.226929,79.282677 637.767944,77.898476 
	C639.040161,74.643478 639.248596,71.755020 635.390320,70.092758 
	C636.528870,67.985695 638.282104,68.006126 639.855896,67.977188 
	C644.351379,67.894547 648.855042,67.829704 653.345215,68.011574 
	C657.237854,68.169243 660.539185,69.565048 661.872559,73.688110 
	C663.114868,77.529839 661.685242,80.504196 658.754333,82.971771 
	C657.740417,83.825386 656.777283,84.739265 655.609619,85.788574 
	C656.941589,88.760765 659.583130,90.995064 659.419495,94.712700 
	C659.158264,100.646103 656.471008,105.460854 650.763550,106.619934 
	C643.130066,108.170128 635.361023,107.227173 627.302734,106.407768 
	C634.772888,100.054581 633.181091,90.633034 636.501465,82.624771 
M646.177246,87.375572 
	C643.458069,87.211960 640.614990,86.975899 639.656250,90.391991 
	C638.759644,93.586906 638.032593,96.836205 637.385498,100.092293 
	C636.836731,102.853447 637.600159,104.593956 640.947205,104.489174 
	C643.141235,104.420502 645.288208,104.243088 647.310852,103.481720 
	C651.694336,101.831696 653.819763,98.542542 653.849548,93.874641 
	C653.879150,89.241470 650.548218,88.216667 646.177246,87.375572 
M648.809692,71.273918 
	C644.112122,72.518150 642.000122,77.029167 642.682617,84.595757 
	C646.527100,85.047424 650.287598,85.071297 653.368530,82.152565 
	C655.625610,80.014305 657.483154,77.454742 656.384460,74.224899 
	C655.322388,71.102745 652.289124,71.331436 648.809692,71.273918 
z"/>
<path fill="#000000" opacity="1.000000" stroke="none" 
	d="
M898.244263,87.853500 
	C893.811401,101.926155 886.483765,107.317474 871.992676,107.188995 
	C867.156250,107.146118 862.185364,108.068588 857.031311,106.347511 
	C864.835144,99.235161 871.225098,74.330208 866.911011,68.463982 
	C867.429810,68.120506 867.941162,67.487129 868.441956,67.495316 
	C874.419250,67.593010 880.457947,67.300583 886.356750,68.065300 
	C895.762451,69.284653 899.773560,75.010895 898.706543,84.476715 
	C898.594727,85.468796 898.440247,86.456078 898.244263,87.853500 
M882.384460,69.927643 
	C878.328491,70.022713 876.096924,72.045357 875.121826,76.037933 
	C873.351196,83.287254 871.173096,90.436256 869.346069,97.672829 
	C867.909119,103.364418 869.708252,105.170425 875.675659,104.393913 
	C885.449707,103.122055 892.303772,94.360680 892.809082,82.492935 
	C893.140747,74.703735 890.865784,71.793556 882.384460,69.927643 
z"/>
<path fill="#000000" opacity="1.000000" stroke="none" 
	d="
M521.723022,87.837997 
	C518.804688,91.597298 519.533691,98.270256 523.036377,103.121109 
	C523.786011,104.159264 525.292175,104.663231 525.304443,106.228745 
	C521.195374,108.710060 518.679260,108.060219 516.850403,103.699837 
	C515.504333,100.490494 514.618774,97.090248 513.457581,93.799942 
	C513.007202,92.523994 512.360535,91.291473 510.667175,91.444641 
	C509.306641,91.567696 508.593231,92.485069 508.365631,93.713783 
	C507.553406,98.098839 503.337524,102.639412 509.959961,107.137131 
	C504.495331,108.528023 500.146362,108.329193 495.610626,106.731155 
	C502.558289,98.201065 508.350189,74.510788 504.152924,68.824837 
	C511.625061,68.774796 518.509705,67.644753 525.285767,69.167976 
	C529.529846,70.122025 530.881409,76.155327 528.299500,80.554329 
	C526.679260,83.314835 524.271545,85.403610 521.723022,87.837997 
M523.134766,73.426842 
	C519.667175,70.592911 514.763733,70.277802 513.827515,73.160995 
	C512.330383,77.771332 510.352234,82.349831 510.157440,87.342636 
	C518.584290,88.120003 523.906128,82.689186 523.134766,73.426842 
z"/>
<path fill="#000000" opacity="1.000000" stroke="none" 
	d="
M175.987885,80.001366 
	C168.983139,85.709969 169.072586,85.674889 172.128174,93.466957 
	C174.079987,98.444351 176.279160,103.216568 180.329529,106.865311 
	C176.618500,110.231857 173.313858,109.638649 170.884308,105.032242 
	C168.497131,100.506149 166.478180,95.785843 164.258224,91.067001 
	C159.411835,95.250710 157.617798,102.483788 160.142548,107.812416 
	C156.253540,108.771530 152.481293,108.623039 147.442810,108.072975 
	C154.632812,103.318520 154.199966,96.115341 155.832733,89.930061 
	C157.479691,83.691017 161.386963,77.671265 158.757111,70.483284 
	C162.223679,69.332764 165.505661,69.492943 169.320099,70.424690 
	C167.872543,72.803841 166.408524,74.757614 165.439880,76.932060 
	C164.512024,79.015007 163.780029,81.293365 164.851456,84.381828 
	C169.380707,81.660133 172.800003,77.918327 176.537659,74.633438 
	C178.244461,73.133400 175.443665,72.179970 175.694855,70.382980 
	C179.361725,69.037987 183.115524,69.803879 186.857986,69.923286 
	C187.065186,70.367401 187.272385,70.811523 187.479599,71.255638 
	C183.742691,74.099335 180.005783,76.943024 175.987885,80.001366 
z"/>
<path fill="#000000" opacity="1.000000" stroke="none" 
	d="
M631.579590,346.773071 
	C624.476257,347.026642 617.860229,350.247528 611.028625,348.199890 
	C611.241333,345.427917 612.794312,345.290192 614.003052,345.117157 
	C625.852966,343.420715 637.608582,341.152008 649.503845,339.680145 
	C657.164612,338.732269 661.084778,343.021393 663.975281,348.569824 
	C666.128540,352.702881 669.011292,354.300262 673.170471,353.613708 
	C684.393738,351.761169 693.343750,355.685883 700.955139,363.717926 
	C702.649048,365.505432 705.078918,366.583344 706.842957,368.320129 
	C708.556152,370.006927 712.853577,371.331207 710.701233,374.123047 
	C708.529419,376.940033 706.084778,373.368683 704.200378,371.849152 
	C700.314758,368.715851 696.512512,365.454559 692.908142,362.003510 
	C688.997192,358.258972 684.717651,356.519043 679.296265,357.954102 
	C668.819763,360.727295 660.865540,355.506500 653.721375,349.064056 
	C649.006592,344.812439 644.006958,344.641235 638.419189,345.696777 
	C636.297302,346.097626 634.146301,346.344666 631.579590,346.773071 
z"/>
<path fill="#000000" opacity="1.000000" stroke="none" 
	d="
M478.466400,136.208008 
	C475.091705,136.492447 475.366943,138.694809 475.361755,140.689789 
	C475.339325,149.354980 475.267120,158.020996 475.363861,166.685028 
	C475.396820,169.634476 474.725372,171.557190 471.315002,171.529236 
	C467.895844,171.501190 467.769196,169.160400 467.761780,166.713974 
	C467.735992,158.215454 467.607208,149.714233 467.782104,141.219498 
	C467.856689,137.598633 466.712372,135.913086 462.930603,136.268509 
	C460.950653,136.454575 458.935364,136.267593 456.936066,136.243301 
	C454.613434,136.215073 453.770813,134.922470 453.710083,132.724655 
	C453.649658,130.537552 454.382263,129.066910 456.718994,129.056412 
	C466.715118,129.011520 476.711853,129.002045 486.707764,129.066818 
	C489.225616,129.083145 490.119049,130.787781 490.112762,133.094543 
	C490.105927,135.607864 488.385925,136.058899 486.402588,136.105957 
	C483.904144,136.165207 481.404114,136.159958 478.466400,136.208008 
z"/>
<path fill="#000000" opacity="1.000000" stroke="none" 
	d="
M706.158325,67.928802 
	C709.932312,68.146751 713.266785,68.215073 716.562561,68.607559 
	C723.047974,69.379890 725.485107,74.438110 722.080200,80.103455 
	C721.066101,81.790771 719.623474,83.248055 718.245178,84.684067 
	C712.730164,90.430191 712.315430,95.329353 716.804138,102.104187 
	C717.615051,103.328056 719.089111,104.111885 719.267151,105.756348 
	C714.958557,108.378922 712.535339,107.770706 710.850891,103.421089 
	C709.650574,100.321503 708.789734,97.092003 707.687439,93.952087 
	C707.242920,92.685822 706.563904,91.432541 704.958496,91.400238 
	C703.042725,91.361671 702.489258,92.803955 702.094604,94.312218 
	C701.044861,98.324379 698.471069,102.415398 703.074768,106.014877 
	C699.330872,107.506683 694.322205,107.750687 688.204285,106.621254 
	C695.941711,102.514435 696.058716,95.050964 697.533142,88.574112 
	C698.962830,82.293961 704.081055,76.039711 699.303589,68.864510 
	C701.035645,67.129089 703.495178,68.202087 706.158325,67.928802 
M709.392639,70.856148 
	C705.479187,75.681793 705.570984,81.694862 703.607788,87.593109 
	C709.594727,87.608925 713.382690,85.395264 716.136902,81.204811 
	C717.799133,78.675766 718.476562,75.883064 717.051636,73.188744 
	C715.629028,70.498886 712.912354,70.112373 709.392639,70.856148 
z"/>
<path fill="#000000" opacity="1.000000" stroke="none" 
	d="
M664.452148,107.321396 
	C662.749756,107.181793 661.319580,107.520851 660.449402,106.151955 
	C666.720093,99.723083 673.644775,75.159805 670.550720,68.150574 
	C677.930603,68.150574 684.950073,68.087509 691.966858,68.199150 
	C693.533752,68.224083 694.326416,69.432243 693.823364,71.034996 
	C693.190674,73.050964 693.383240,75.383751 690.959717,77.681252 
	C689.244080,73.055183 686.297241,69.116028 681.247986,71.519753 
	C676.211548,73.917366 677.368103,79.692596 675.862549,83.978104 
	C681.084839,86.658379 684.031433,83.151199 688.214600,79.931946 
	C687.806519,85.673409 686.475464,89.970787 684.842834,94.228752 
	C682.125488,93.704659 682.299805,91.653397 681.526672,90.311089 
	C680.747498,88.958344 679.821289,87.715553 678.151550,87.705070 
	C676.397339,87.694046 675.565247,89.132477 674.977539,90.503021 
	C674.261597,92.172806 673.537231,93.913200 673.283386,95.689751 
	C672.891724,98.431244 670.523926,101.532356 673.866089,103.877342 
	C676.323669,105.601662 682.698303,103.661346 685.200684,100.809563 
	C686.140747,99.738167 686.326599,97.967957 688.065125,97.600807 
	C690.285400,103.428871 687.851868,107.238174 681.868530,107.285973 
	C676.210144,107.331184 670.551208,107.315582 664.452148,107.321396 
z"/>
<path fill="#000000" opacity="1.000000" stroke="none" 
	d="
M319.453918,88.576912 
	C320.757751,79.181976 325.441772,72.876358 333.936615,69.470261 
	C343.109711,65.792191 351.797485,69.894363 354.789307,79.366356 
	C358.131989,89.949135 351.407166,103.739937 340.967499,107.711166 
	C328.924927,112.292137 318.181519,102.973152 319.453918,88.576912 
M335.090057,72.305122 
	C326.391907,78.779366 324.082123,87.815468 325.553986,97.904938 
	C326.635284,105.316940 334.976074,108.249588 340.903900,103.511749 
	C348.362152,97.550682 350.431305,89.310646 349.070068,80.325363 
	C347.777191,71.790985 344.226990,69.847206 335.090057,72.305122 
z"/>
<path fill="#000000" opacity="1.000000" stroke="none" 
	d="
M447.183777,100.153061 
	C445.599823,92.969131 447.198578,87.508507 453.897400,84.374825 
	C456.125732,83.332413 456.273621,81.800659 456.036072,79.500099 
	C455.183441,71.243637 464.545013,64.926224 472.067017,68.504669 
	C475.671509,70.219429 476.105286,72.428734 473.642426,76.519547 
	C472.173798,76.855827 471.647949,75.622246 470.832336,74.851250 
	C467.008148,71.236290 461.642792,72.512070 459.676514,77.484344 
	C458.715576,79.914429 459.776520,81.180008 462.009277,82.072258 
	C463.687073,82.742737 466.197296,82.347397 466.585419,85.163315 
	C464.998047,87.008339 462.862152,86.396973 461.007080,86.262291 
	C455.820984,85.885750 453.340942,88.765442 452.169739,93.255867 
	C451.058502,97.516342 453.386566,102.185989 457.382874,104.056030 
	C461.503540,105.984261 467.753265,104.743744 470.772339,101.373558 
	C472.431824,99.521088 473.534027,97.254616 472.281342,94.991211 
	C470.994720,92.666466 468.550446,93.381477 466.435120,93.959343 
	C465.669250,94.168571 464.943817,94.525887 464.058441,94.870743 
	C464.658051,89.884827 474.694794,86.543396 481.835358,88.774170 
	C481.730865,89.370300 481.821136,90.388115 481.481964,90.560356 
	C476.507599,93.086456 476.122101,98.453804 473.813599,102.634377 
	C469.662140,110.152428 449.700470,110.850975 447.183777,100.153061 
z"/>
<path fill="#000000" opacity="1.000000" stroke="none" 
	d="
M210.000748,104.070900 
	C207.428787,106.807068 204.898727,108.822624 201.120682,107.942810 
	C199.791290,105.171814 201.313034,102.677498 201.619324,99.387367 
	C199.124832,102.080925 197.161987,104.537956 194.849838,106.604103 
	C192.437866,108.759415 189.621445,110.369522 186.278915,108.346512 
	C183.188446,106.476044 183.223480,103.495682 183.648254,100.412247 
	C185.715988,85.401955 197.736694,76.811653 212.149887,80.647781 
	C210.540359,87.135345 208.922592,93.656151 207.318314,100.122543 
	C209.034836,101.303291 209.595078,98.671715 211.199005,99.545410 
	C212.372147,101.149681 210.810760,102.377151 210.000748,104.070900 
M205.247635,86.794136 
	C205.123810,82.458298 203.499924,81.270584 200.000565,83.339333 
	C193.938217,86.923271 190.706940,92.568108 189.285324,99.319122 
	C188.942535,100.947014 188.750259,102.809418 190.747513,103.566216 
	C192.644669,104.285080 193.877197,102.957268 194.866821,101.577820 
	C198.238800,96.877594 201.562363,92.142632 205.247635,86.794136 
z"/>
<path fill="#000000" opacity="1.000000" stroke="none" 
	d="
M379.616272,131.616089 
	C379.863708,141.012161 380.170990,149.993088 379.953186,158.961243 
	C379.840118,163.617767 381.534058,165.237427 386.045807,164.819580 
	C389.177948,164.529495 392.360474,164.794250 395.520508,164.790756 
	C398.019928,164.787994 399.143677,166.045731 399.092773,168.509094 
	C399.043610,170.887451 397.596558,171.714310 395.516907,171.710693 
	C389.202362,171.699753 382.887970,171.617371 376.573395,171.582031 
	C373.928925,171.567230 372.696655,170.405441 372.713165,167.630249 
	C372.780487,156.320572 372.632355,145.009033 372.769379,133.700668 
	C372.821991,129.359497 374.906860,128.680771 379.616272,131.616089 
z"/>
<path fill="#000000" opacity="1.000000" stroke="none" 
	d="
M258.322571,80.868073 
	C263.465546,79.423508 268.314270,78.915680 274.117767,78.959587 
	C272.135406,86.764198 270.318665,93.916733 268.473022,101.183113 
	C270.386230,101.166016 270.619507,98.609200 272.470520,98.776611 
	C273.106842,104.437798 268.502167,108.498108 262.337769,107.569977 
	C261.748627,104.917007 263.069458,102.441818 263.162720,100.624641 
	C261.340424,102.150475 259.080627,104.100052 256.757751,105.971382 
	C254.436813,107.841141 252.012802,110.295212 248.806198,108.514961 
	C245.522720,106.692024 244.870743,103.123962 245.333557,99.767731 
	C246.250977,93.114746 249.399078,87.519585 254.622849,83.205742 
	C255.640350,82.365471 256.844147,81.750771 258.322571,80.868073 
M265.543549,82.658806 
	C263.018280,81.845398 261.056244,82.945473 259.212585,84.499001 
	C254.734177,88.272652 252.287231,93.224617 250.784866,98.767487 
	C250.312012,100.511993 250.219238,102.193901 251.822342,103.217026 
	C253.810425,104.485847 255.313766,103.167572 256.424072,101.638039 
	C259.720642,97.096756 262.987061,92.530380 266.126648,87.880241 
	C267.125275,86.401146 268.039917,84.625099 265.543549,82.658806 
z"/>
<path fill="#000000" opacity="1.000000" stroke="none" 
	d="
M831.899902,87.083740 
	C832.978210,83.163727 833.775085,79.583344 834.938904,76.126518 
	C835.834656,73.465919 835.893799,71.278160 832.316345,69.448288 
	C836.829590,68.090248 840.405823,68.462135 844.313171,69.116585 
	C839.622803,77.471947 838.546448,86.626434 835.856323,95.272797 
	C834.981445,98.084808 834.682312,100.921288 837.447327,102.977898 
	C840.287842,105.090675 843.337158,104.984444 846.387207,103.435219 
	C849.780151,101.711800 851.318237,98.584587 852.294434,95.158066 
	C853.841858,89.726219 855.101440,84.208359 856.778198,78.818787 
	C857.930298,75.115784 858.539734,71.745049 854.351562,68.887901 
	C857.864990,67.108017 860.811035,67.705925 863.897583,68.220329 
	C859.566895,77.499176 857.843506,87.287842 855.193359,96.794006 
	C852.897705,105.028435 846.276489,109.140076 838.150574,107.285927 
	C831.908142,105.861542 828.839783,101.518753 829.852112,95.206833 
	C830.271118,92.594398 831.122070,90.051231 831.899902,87.083740 
z"/>
<path fill="#000000" opacity="1.000000" stroke="none" 
	d="
M452.579315,528.341553 
	C458.610504,527.721985 463.989929,528.857971 468.980591,531.245300 
	C475.425415,534.328369 480.120300,538.809326 480.555511,546.718872 
	C480.800476,551.170898 481.732544,555.683777 486.499939,558.059143 
	C487.430511,558.522766 488.178162,559.690125 487.399078,561.348633 
	C483.482483,561.234131 480.745758,559.107056 478.779877,555.878052 
	C477.928711,554.479919 477.421417,552.855164 476.872559,551.293091 
	C472.009064,537.451477 466.201019,533.942993 451.916504,536.733215 
	C447.602753,537.575806 444.697784,535.635010 441.320160,533.134705 
	C444.403107,529.680786 448.349548,529.195374 452.579315,528.341553 
z"/>
<path fill="#000000" opacity="1.000000" stroke="none" 
	d="
M406.169159,104.326981 
	C405.657349,101.705215 405.248810,99.464256 406.390533,97.376717 
	C408.968262,97.467117 409.075287,99.478836 409.844147,100.804657 
	C412.252777,104.958237 415.201935,105.814926 419.270081,103.444305 
	C422.977875,101.283669 423.402863,98.483376 420.616852,94.217316 
	C418.527863,91.018578 416.388397,87.852821 414.274261,84.670509 
	C411.637817,80.701988 411.125275,76.678665 414.053589,72.622025 
	C416.706299,68.947144 423.128815,66.736252 427.473236,67.952919 
	C432.491852,69.358406 433.378815,72.821716 429.803864,77.144386 
	C428.337463,76.820404 428.433380,75.401840 428.069153,74.425095 
	C426.805481,71.036530 424.476227,70.882851 421.653107,72.134781 
	C418.803558,73.398438 416.863556,75.254631 418.070709,78.716995 
	C418.968536,81.292084 420.794220,83.239243 422.637665,85.175346 
	C426.136932,88.850517 428.032288,93.141106 427.268433,98.309074 
	C426.534912,103.271698 423.536102,106.614861 418.855591,107.778114 
	C414.374756,108.891754 409.525970,109.688499 406.169159,104.326981 
z"/>
<path fill="#000000" opacity="1.000000" stroke="none" 
	d="
M300.939636,102.904457 
	C305.574219,106.235970 307.799835,105.463547 313.848572,98.786850 
	C316.058655,102.452744 315.556274,106.009285 311.936737,107.081642 
	C305.067566,109.116753 298.034576,108.294785 290.616119,107.362045 
	C297.762360,98.519226 303.550110,74.849480 299.964874,70.540825 
	C303.711609,69.361412 308.755646,69.292404 314.416199,70.609001 
	C305.603546,73.700172 307.081970,81.595146 304.951569,87.640381 
	C303.245453,92.481606 302.239197,97.569458 300.939636,102.904457 
z"/>
<path fill="#000000" opacity="1.000000" stroke="none" 
	d="
M553.006836,86.981918 
	C550.200378,92.708778 544.640869,94.033821 539.223267,95.721451 
	C537.493347,96.260345 534.917114,95.828369 534.437317,98.504265 
	C534.126953,100.234947 534.640503,101.884186 536.093628,102.943565 
	C538.203247,104.481514 540.180054,103.310745 542.142883,102.383629 
	C543.886597,101.559998 545.286255,99.971855 547.440491,99.791992 
	C546.767456,104.610893 542.640930,108.039856 537.585815,108.158493 
	C532.971680,108.266777 529.464905,105.182121 528.767639,100.401779 
	C527.562195,92.137604 533.055359,82.653984 540.894043,79.466270 
	C547.562317,76.754524 551.679382,79.050880 553.005493,86.627640 
	C552.979675,87.019234 552.999878,86.995888 553.006836,86.981918 
M537.660461,87.102654 
	C536.634766,89.046043 534.615845,90.594719 534.982849,93.177849 
	C543.440552,93.699547 547.685242,89.486893 546.051514,82.331306 
	C542.082092,81.202583 539.893433,83.493576 537.660461,87.102654 
z"/>
<path fill="#000000" opacity="1.000000" stroke="none" 
	d="
M571.209961,266.659851 
	C576.104431,268.775970 581.532166,269.461426 584.323486,275.461853 
	C577.600586,278.507965 571.048218,281.070068 564.066467,281.918518 
	C560.448059,282.358246 558.314392,280.025818 558.679077,275.968140 
	C559.225037,269.893829 564.068420,266.084503 571.209961,266.659851 
z"/>
<path fill="#000000" opacity="1.000000" stroke="none" 
	d="
M552.974365,129.099060 
	C555.784851,129.298157 556.340332,130.826248 556.335266,132.904236 
	C556.307678,144.203445 556.307373,155.502777 556.326782,166.802017 
	C556.330566,169.014053 555.938904,170.783279 553.193665,170.886139 
	C550.240845,170.996796 549.577393,169.285538 549.586243,166.763397 
	C549.625061,155.630402 549.608032,144.497208 549.600464,133.364075 
	C549.599060,131.251770 549.736267,129.268234 552.974365,129.099060 
z"/>
<path fill="#000000" opacity="1.000000" stroke="none" 
	d="
M584.824951,234.707642 
	C591.413025,230.278702 591.883240,230.335526 596.583557,236.565582 
	C597.799011,238.176712 599.496948,238.594971 601.254639,239.114655 
	C603.484131,239.773849 605.360718,241.113342 605.025085,243.650650 
	C604.694763,246.147003 602.415894,246.362793 600.373840,246.367676 
	C595.230347,246.379974 590.035461,246.502197 585.367615,243.815384 
	C579.831726,240.628952 579.703796,238.985275 584.824951,234.707642 
z"/>
<path fill="#000000" opacity="1.000000" stroke="none" 
	d="
M225.403290,102.591431 
	C224.156693,104.350586 223.219467,105.969254 221.923645,107.214859 
	C220.485825,108.596954 218.690460,109.827446 216.575378,108.496254 
	C214.705505,107.319397 214.846222,105.444519 215.319489,103.582817 
	C216.546051,98.757858 217.820557,93.944695 218.998276,89.107918 
	C219.347198,87.674927 219.740967,86.146622 219.588043,84.718338 
	C219.190033,81.001434 222.673569,74.729538 226.453217,73.040771 
	C228.966751,75.265945 225.060211,80.903145 231.681793,81.101006 
	C220.972687,85.553032 224.303757,95.515022 220.504715,102.705208 
	C223.144974,102.584343 223.285767,99.594742 225.482315,100.024345 
	C226.273788,100.761307 225.883621,101.524864 225.403290,102.591431 
z"/>
<path fill="#000000" opacity="1.000000" stroke="none" 
	d="
M554.144165,257.272644 
	C548.630615,253.721085 548.355774,249.333328 553.125671,245.700211 
	C555.937500,243.558548 559.179504,242.235367 562.635010,241.496719 
	C565.121887,240.965134 567.549072,241.649704 568.890930,243.615784 
	C570.392883,245.816467 568.015442,247.323822 566.701416,248.553986 
	C563.042480,251.979294 560.367188,256.866119 554.144165,257.272644 
z"/>
<path fill="#000000" opacity="1.000000" stroke="none" 
	d="
M235.448669,90.893036 
	C235.788559,89.242149 236.029404,87.951881 236.287354,86.570030 
	C234.700287,86.112610 233.900208,88.515724 232.196518,87.448975 
	C231.574951,85.429459 233.071732,84.106514 234.261551,82.856201 
	C236.100952,80.923294 238.392899,78.648552 241.132401,79.944077 
	C244.174301,81.382622 242.327896,84.332237 241.805145,86.605003 
	C240.694519,91.433746 239.394150,96.218849 238.050262,101.498367 
	C240.286697,101.102562 240.870010,98.707115 242.767105,98.668129 
	C242.800598,103.699646 238.676636,108.381142 234.344650,108.469498 
	C231.443314,108.528664 231.573227,106.719276 232.032364,104.779846 
	C233.101807,100.262512 234.239563,95.761360 235.448669,90.893036 
z"/>
<path fill="#000000" opacity="1.000000" stroke="none" 
	d="
M608.470947,79.767143 
	C610.057434,84.573059 607.346436,88.461975 606.818726,92.683121 
	C606.535645,94.947403 605.225525,97.043762 605.571289,99.607254 
	C607.477661,100.021683 607.928345,96.999168 610.569946,98.159714 
	C609.298889,102.133736 606.734314,105.280479 603.119812,106.985809 
	C600.351013,108.292137 599.155334,105.912102 599.634216,103.377724 
	C600.620544,98.158142 601.885315,92.991142 603.039307,87.803337 
	C603.249023,86.860390 603.476501,85.921371 603.715027,84.897797 
	C602.049927,84.738304 602.291504,86.170540 601.675842,86.765961 
	C600.809875,87.603439 599.962524,88.586006 598.722534,87.611763 
	C597.443909,86.607147 598.059753,85.367874 598.987976,84.641449 
	C601.783142,82.453751 603.208069,77.739929 608.470947,79.767143 
z"/>
<path fill="#000000" opacity="1.000000" stroke="none" 
	d="
M558.711182,258.375244 
	C561.726685,255.087158 564.519043,251.751678 568.954102,251.279007 
	C572.610107,250.889359 576.391785,251.704102 577.298401,255.851379 
	C578.238342,260.150818 574.718750,261.592926 571.342529,262.339142 
	C566.524597,263.404083 561.792053,263.620422 558.711182,258.375244 
z"/>
<path fill="#000000" opacity="1.000000" stroke="none" 
	d="
M551.784668,67.751610 
	C552.760681,69.793793 551.832581,70.920815 550.330261,71.547943 
	C546.940735,72.962868 543.667969,74.913986 539.607056,74.237808 
	C542.738037,70.425911 546.331970,67.570160 551.784668,67.751610 
z"/>
<path fill="#000000" opacity="1.000000" stroke="none" 
	d="
M240.213348,73.092407 
	C241.480957,71.027092 242.587769,68.707779 245.132355,70.800697 
	C246.932724,72.281494 245.736984,73.744461 244.446838,74.850166 
	C242.342422,76.653732 240.946411,75.886406 240.213348,73.092407 
z"/>
<path fill="#000000" opacity="1.000000" stroke="none" 
	d="
M637.764526,383.995850 
	C636.061462,383.877289 634.809509,383.573700 634.158997,381.706909 
	C635.995850,379.764465 638.417664,379.501678 641.172485,379.347382 
	C641.522888,382.073792 640.005798,383.125092 637.764526,383.995850 
z"/>
</svg>